<?xml version="1.0" encoding="UTF-8"?>
<!DOCTYPE svg PUBLIC "-//W3C//DTD SVG 1.1//EN" "http://www.w3.org/Graphics/SVG/1.1/DTD/svg11.dtd">
<svg xmlns="http://www.w3.org/2000/svg" version="1.1" width="120px" height="36px" style="shape-rendering:geometricPrecision; text-rendering:geometricPrecision; image-rendering:optimizeQuality; fill-rule:evenodd; clip-rule:evenodd" xmlns:xlink="http://www.w3.org/1999/xlink">
<g><path style="opacity:0.734" fill="#000000" d="M 19.5,10.5 C 21.6269,11.3976 22.7935,13.0643 23,15.5C 24.0658,11.0327 25.8991,10.5327 28.5,14C 28.0245,15.7633 27.3578,17.43 26.5,19C 28.5,19.6667 30.5,19.6667 32.5,19C 34.628,15.8699 37.128,13.0366 40,10.5C 40.7387,11.5742 41.7387,12.2409 43,12.5C 48.9985,10.6819 55.1652,10.6819 61.5,12.5C 61.8333,13.1667 62.1667,13.8333 62.5,14.5C 61.4519,16.4559 60.9519,18.4559 61,20.5C 62.6971,18.301 64.1971,15.9676 65.5,13.5C 66.2739,12.2888 67.1072,12.2888 68,13.5C 68.1437,21.3795 64.9771,27.5461 58.5,32C 56.7111,32.5205 55.0444,32.1871 53.5,31C 50.2436,29.5411 47.5769,27.3745 45.5,24.5C 44.4679,26.0396 43.1346,26.5396 41.5,26C 41.2313,19.3969 40.0647,19.2302 38,25.5C 36.9887,26.3366 35.8221,26.67 34.5,26.5C 34.8072,24.5542 34.8072,22.8875 34.5,21.5C 31.1484,25.8427 26.8151,27.3427 21.5,26C 20.5,22.6667 19.5,22.6667 18.5,26C 17.2068,26.49 15.8734,26.6567 14.5,26.5C 15.0138,24.4884 15.1805,22.4884 15,20.5C 13.1667,22.3333 11.3333,24.1667 9.5,26C 3.46687,26.4739 3.13354,25.4739 8.5,23C 12.7475,19.2583 16.4141,15.0917 19.5,10.5 Z M 48.5,12.5 C 51.0009,12.5109 51.1676,13.1776 49,14.5C 48.5357,13.9056 48.369,13.2389 48.5,12.5 Z M 55.5,13.5 C 56.675,13.281 57.675,13.6143 58.5,14.5C 56.1297,17.8775 54.963,21.5442 55,25.5C 60.3828,26.0422 60.7162,27.3755 56,29.5C 53.2607,28.1034 50.7607,25.6034 48.5,22C 50.018,20.152 51.8513,18.652 54,17.5C 54.7914,16.255 55.2914,14.9217 55.5,13.5 Z M 42.5,17.5 C 43.7733,18.0768 43.7733,18.7435 42.5,19.5C 41.537,19.0302 41.537,18.3635 42.5,17.5 Z M 25.5,20.5 C 27.7388,22.0012 27.7388,23.3345 25.5,24.5C 25.0941,23.4425 25.0941,22.1092 25.5,20.5 Z"/></g>
<g><path style="opacity:0.72" fill="#000000" d="M 101.5,17.5 C 100.957,17.56 100.624,17.8933 100.5,18.5C 105.422,25.7706 103.422,28.2706 94.5,26C 94,25.5 93.5,25 93,24.5C 89.6397,25.8906 86.4731,27.5573 83.5,29.5C 80.3027,28.6009 77.136,27.6009 74,26.5C 71.359,27.7129 70.1924,26.7129 70.5,23.5C 71.675,23.719 72.675,23.3857 73.5,22.5C 74.9416,19.9504 76.1083,17.2837 77,14.5C 80.2562,10.5385 83.4228,10.5385 86.5,14.5C 88.9331,11.758 91.9331,10.9246 95.5,12C 96.2266,13.3988 96.7266,14.8988 97,16.5C 98.7129,11.962 101.88,10.462 106.5,12C 108.286,15.4269 107.452,17.9269 104,19.5C 102.699,19.3613 101.866,18.6946 101.5,17.5 Z M 92.5,13.5 C 93.3861,18.0514 91.7194,21.7181 87.5,24.5C 87.7955,20.4955 89.4621,16.8288 92.5,13.5 Z M 101.5,17.5 C 101.685,15.8042 102.519,14.4709 104,13.5C 104.279,15.4122 103.446,16.7456 101.5,17.5 Z M 80.5,16.5 C 81.8873,18.8766 82.7206,21.5432 83,24.5C 86.3421,26.762 86.1754,27.5954 82.5,27C 80.4453,26.3128 78.7786,25.1461 77.5,23.5C 78.7878,21.2612 79.7878,18.9279 80.5,16.5 Z M 95.5,19.5 C 97.0103,20.8361 98.6769,22.0027 100.5,23C 98.8333,23.6667 97.1667,23.6667 95.5,23C 96.1712,22.0138 96.1712,20.8471 95.5,19.5 Z"/></g>
</svg>
